# Blender v2.80 (sub 75) OBJ File: ''
# www.blender.org
mtllib Crosshair.mtl
o Cube.001
v 0.370929 0.370929 -0.370929
v 0.370929 -0.370929 -0.370929
v 0.370929 0.370929 0.370929
v 0.370929 -0.370929 0.370929
v -0.370929 0.370929 -0.370929
v -0.370929 -0.370929 -0.370929
v -0.370929 0.370929 0.370929
v -0.370929 -0.370929 0.370929
v 0.320518 1.782070 -0.320518
v 0.320518 0.782070 -0.320518
v 0.320518 1.782070 0.320518
v 0.320518 0.782070 0.320518
v -0.320518 1.782070 -0.320518
v -0.320518 0.782070 -0.320518
v -0.320518 1.782070 0.320518
v -0.320518 0.782070 0.320518
v 0.320518 -0.782070 -0.320518
v 0.320518 -1.782070 -0.320518
v 0.320518 -0.782070 0.320518
v 0.320518 -1.782070 0.320518
v -0.320518 -0.782070 -0.320518
v -0.320518 -1.782070 -0.320518
v -0.320518 -0.782070 0.320518
v -0.320518 -1.782070 0.320518
v 1.782070 0.320518 -0.320518
v 1.782070 -0.320518 -0.320518
v 1.782070 0.320518 0.320518
v 1.782070 -0.320518 0.320518
v 0.782070 0.320518 -0.320518
v 0.782070 -0.320518 -0.320518
v 0.782070 0.320518 0.320518
v 0.782070 -0.320518 0.320518
v -0.782070 0.320518 -0.320518
v -0.782070 -0.320518 -0.320518
v -0.782070 0.320518 0.320518
v -0.782070 -0.320518 0.320518
v -1.782070 0.320518 -0.320518
v -1.782070 -0.320518 -0.320518
v -1.782070 0.320518 0.320518
v -1.782070 -0.320518 0.320518
vt 0.625000 0.000000
vt 0.375000 0.250000
vt 0.375000 0.000000
vt 0.625000 0.250000
vt 0.375000 0.500000
vt 0.375000 0.250000
vt 0.625000 0.500000
vt 0.375000 0.750000
vt 0.625000 0.750000
vt 0.375000 1.000000
vt 0.375000 0.500000
vt 0.125000 0.750000
vt 0.125000 0.500000
vt 0.875000 0.500000
vt 0.625000 0.500000
vt 0.625000 0.000000
vt 0.375000 0.250000
vt 0.375000 0.000000
vt 0.625000 0.250000
vt 0.375000 0.500000
vt 0.375000 0.250000
vt 0.625000 0.500000
vt 0.375000 0.750000
vt 0.625000 0.750000
vt 0.375000 1.000000
vt 0.375000 0.500000
vt 0.125000 0.750000
vt 0.125000 0.500000
vt 0.875000 0.500000
vt 0.625000 0.500000
vt 0.625000 0.000000
vt 0.375000 0.250000
vt 0.375000 0.000000
vt 0.625000 0.250000
vt 0.375000 0.500000
vt 0.375000 0.250000
vt 0.625000 0.500000
vt 0.375000 0.750000
vt 0.625000 0.750000
vt 0.375000 1.000000
vt 0.375000 0.500000
vt 0.125000 0.750000
vt 0.125000 0.500000
vt 0.875000 0.500000
vt 0.625000 0.500000
vt 0.625000 0.000000
vt 0.375000 0.250000
vt 0.375000 0.000000
vt 0.625000 0.250000
vt 0.375000 0.500000
vt 0.375000 0.250000
vt 0.625000 0.500000
vt 0.375000 0.750000
vt 0.625000 0.750000
vt 0.375000 1.000000
vt 0.375000 0.500000
vt 0.125000 0.750000
vt 0.125000 0.500000
vt 0.875000 0.500000
vt 0.625000 0.500000
vt 0.625000 0.000000
vt 0.375000 0.250000
vt 0.375000 0.000000
vt 0.625000 0.250000
vt 0.375000 0.500000
vt 0.375000 0.250000
vt 0.625000 0.500000
vt 0.375000 0.750000
vt 0.625000 0.750000
vt 0.375000 1.000000
vt 0.375000 0.500000
vt 0.125000 0.750000
vt 0.125000 0.500000
vt 0.875000 0.500000
vt 0.625000 0.500000
vt 0.625000 0.250000
vt 0.625000 0.750000
vt 0.625000 1.000000
vt 0.375000 0.750000
vt 0.875000 0.750000
vt 0.625000 0.250000
vt 0.625000 0.750000
vt 0.625000 1.000000
vt 0.375000 0.750000
vt 0.875000 0.750000
vt 0.625000 0.250000
vt 0.625000 0.750000
vt 0.625000 1.000000
vt 0.375000 0.750000
vt 0.875000 0.750000
vt 0.625000 0.250000
vt 0.625000 0.750000
vt 0.625000 1.000000
vt 0.375000 0.750000
vt 0.875000 0.750000
vt 0.625000 0.250000
vt 0.625000 0.750000
vt 0.625000 1.000000
vt 0.375000 0.750000
vt 0.875000 0.750000
vn 0.0000 1.0000 0.0000
vn 0.0000 0.0000 1.0000
vn -1.0000 0.0000 0.0000
vn 0.0000 -1.0000 0.0000
vn 1.0000 0.0000 0.0000
vn 0.0000 0.0000 -1.0000
usemtl Material
s off
f 5/1/1 3/2/1 1/3/1
f 3/4/2 8/5/2 4/6/2
f 7/7/3 6/8/3 8/5/3
f 2/9/4 8/10/4 6/8/4
f 1/11/5 4/12/5 2/13/5
f 5/14/6 2/9/6 6/15/6
f 13/16/1 11/17/1 9/18/1
f 11/19/2 16/20/2 12/21/2
f 15/22/3 14/23/3 16/20/3
f 10/24/4 16/25/4 14/23/4
f 9/26/5 12/27/5 10/28/5
f 13/29/6 10/24/6 14/30/6
f 21/31/1 19/32/1 17/33/1
f 19/34/2 24/35/2 20/36/2
f 23/37/3 22/38/3 24/35/3
f 18/39/4 24/40/4 22/38/4
f 17/41/5 20/42/5 18/43/5
f 21/44/6 18/39/6 22/45/6
f 29/46/1 27/47/1 25/48/1
f 27/49/2 32/50/2 28/51/2
f 31/52/3 30/53/3 32/50/3
f 26/54/4 32/55/4 30/53/4
f 25/56/5 28/57/5 26/58/5
f 29/59/6 26/54/6 30/60/6
f 37/61/1 35/62/1 33/63/1
f 35/64/2 40/65/2 36/66/2
f 39/67/3 38/68/3 40/65/3
f 34/69/4 40/70/4 38/68/4
f 33/71/5 36/72/5 34/73/5
f 37/74/6 34/69/6 38/75/6
f 5/1/1 7/76/1 3/2/1
f 3/4/2 7/7/2 8/5/2
f 7/7/3 5/77/3 6/8/3
f 2/9/4 4/78/4 8/10/4
f 1/11/5 3/79/5 4/12/5
f 5/14/6 1/80/6 2/9/6
f 13/16/1 15/81/1 11/17/1
f 11/19/2 15/22/2 16/20/2
f 15/22/3 13/82/3 14/23/3
f 10/24/4 12/83/4 16/25/4
f 9/26/5 11/84/5 12/27/5
f 13/29/6 9/85/6 10/24/6
f 21/31/1 23/86/1 19/32/1
f 19/34/2 23/37/2 24/35/2
f 23/37/3 21/87/3 22/38/3
f 18/39/4 20/88/4 24/40/4
f 17/41/5 19/89/5 20/42/5
f 21/44/6 17/90/6 18/39/6
f 29/46/1 31/91/1 27/47/1
f 27/49/2 31/52/2 32/50/2
f 31/52/3 29/92/3 30/53/3
f 26/54/4 28/93/4 32/55/4
f 25/56/5 27/94/5 28/57/5
f 29/59/6 25/95/6 26/54/6
f 37/61/1 39/96/1 35/62/1
f 35/64/2 39/67/2 40/65/2
f 39/67/3 37/97/3 38/68/3
f 34/69/4 36/98/4 40/70/4
f 33/71/5 35/99/5 36/72/5
f 37/74/6 33/100/6 34/69/6
